<svg width="16" height="17" viewBox="0 0 16 17" fill="none" xmlns="http://www.w3.org/2000/svg">
<path d="M1.58333 16.0417C1.14792 16.0417 0.775042 15.8847 0.464708 15.5708C0.154903 15.2564 0 14.8786 0 14.4375V3.20833C0 2.76719 0.154903 2.38967 0.464708 2.07579C0.775042 1.76137 1.14792 1.60417 1.58333 1.60417H2.375V0.802083C2.375 0.574826 2.45074 0.384198 2.60221 0.230198C2.75421 0.0767326 2.94236 0 3.16667 0C3.39097 0 3.57912 0.0767326 3.73112 0.230198C3.8826 0.384198 3.95833 0.574826 3.95833 0.802083V1.60417H10.2917V0.802083C10.2917 0.574826 10.3677 0.384198 10.5197 0.230198C10.6711 0.0767326 10.859 0 11.0833 0C11.3076 0 11.4955 0.0767326 11.647 0.230198C11.799 0.384198 11.875 0.574826 11.875 0.802083V1.60417H12.6667C13.1021 1.60417 13.475 1.76137 13.7853 2.07579C14.0951 2.38967 14.25 2.76719 14.25 3.20833V8.02083H12.6667V6.41667H1.58333V14.4375H7.125V16.0417H1.58333ZM15.1406 12.0312L13.4583 10.3268L14.0323 9.74531C14.1774 9.59826 14.3622 9.52474 14.5865 9.52474C14.8108 9.52474 14.9955 9.59826 15.1406 9.74531L15.7146 10.3268C15.8597 10.4739 15.9323 10.661 15.9323 10.8883C15.9323 11.1155 15.8597 11.3027 15.7146 11.4497L15.1406 12.0312ZM8.70833 16.4427V15.4802C8.70833 15.3733 8.72813 15.2698 8.76771 15.1698C8.80729 15.0693 8.86667 14.9789 8.94583 14.8987L12.9042 10.8883L14.5865 12.5927L10.6281 16.6031C10.549 16.6833 10.46 16.7435 10.3613 16.7836C10.2621 16.8237 10.1597 16.8438 10.0542 16.8438H9.10417C8.99861 16.8438 8.90625 16.8036 8.82708 16.7234C8.74792 16.6432 8.70833 16.5497 8.70833 16.4427Z" fill="#D9D9D9"/>
</svg>
